<svg width="76" height="75" viewBox="0 0 76 75" fill="none" xmlns="http://www.w3.org/2000/svg">
<path d="M54.8308 50.7157C54.0391 52.0859 52.6231 52.9081 51.0549 52.9081H25.5677C23.9995 52.9081 22.5988 52.1012 21.8223 50.7613C21.0305 49.3911 21.0306 47.7619 21.807 46.3917L34.5811 24.2845C35.3576 22.9294 36.7583 22.1073 38.3265 22.1073C39.8947 22.1073 41.2955 22.9294 42.072 24.2845L54.8308 46.3917C55.6377 47.7467 55.6225 49.3606 54.8308 50.7157Z" fill="#FFE982"/>
<path fill-rule="evenodd" clip-rule="evenodd" d="M46.4111 17.1894L64.514 48.5231C66.1888 51.4312 66.1736 54.9026 64.4836 57.8106C62.7783 60.7491 59.7485 62.5 56.3837 62.5H20.2387C16.8892 62.5 13.8898 60.7795 12.1998 57.8867C10.4945 54.9787 10.4945 51.4769 12.1693 48.5384L30.3027 17.1742C31.9775 14.2509 34.9769 12.5 38.3569 12.5C41.7369 12.5 44.7515 14.2509 46.4111 17.1894ZM56.3837 59.3484C58.6066 59.3484 60.6163 58.1912 61.743 56.2424C62.8544 54.3088 62.8697 52.025 61.7734 50.1066L43.6705 18.7576C42.5591 16.824 40.5646 15.6669 38.3417 15.6669C36.1188 15.6669 34.1242 16.8088 33.028 18.7424L14.9099 50.1066C13.7984 52.0402 13.7984 54.3544 14.9251 56.3033C16.0365 58.2065 18.0158 59.3484 20.2387 59.3484H56.3837ZM38.3721 44.6103C37.5499 44.6103 36.9409 44.047 36.8952 43.2248L36.3167 32.8563L36.1188 30.1615C36.1188 28.9282 36.7734 27.969 37.8392 27.6645C38.905 27.4209 39.9403 27.9386 40.3818 28.8978C40.5341 29.2479 40.595 29.5981 40.595 30.0397C40.5493 30.74 40.5037 31.4556 40.458 32.1712C40.4428 32.4148 40.4258 32.6584 40.4089 32.902C40.3751 33.3892 40.3412 33.8764 40.3209 34.3637L39.9251 41.0324C39.849 41.7936 39.849 42.4787 39.849 43.1639V43.1639C39.8033 43.9861 39.179 44.6103 38.3721 44.6103Z" fill="#00365C"/>
<path d="M38.3722 47.9598C37.1694 47.9598 36.1646 48.9646 36.1646 50.1674C36.1646 51.3702 37.1694 52.3751 38.3722 52.3751C38.9508 52.3751 39.5141 52.1163 39.9404 51.6748C40.3211 51.2637 40.519 50.7765 40.5038 50.274C40.5342 49.6193 40.3211 49.056 39.91 48.6297C39.5141 48.1882 38.966 47.9598 38.3722 47.9598Z" fill="#F278AB"/>
</svg>
