<svg width="316" height="240" viewBox="0 0 316 240" fill="none" xmlns="http://www.w3.org/2000/svg">
<path d="M0.838867 5.99999C0.838867 2.68629 3.52516 0 6.83887 0H309.839C313.153 0 315.839 2.68629 315.839 6V234C315.839 237.314 313.153 240 309.839 240H6.83887C3.52516 240 0.838867 237.314 0.838867 234V5.99999Z" fill="#F6F7FB"/>
<path fill-rule="evenodd" clip-rule="evenodd" d="M315.839 234C315.839 236.761 313.153 239 309.839 239H6.83887C3.52516 239 0.838867 236.761 0.838867 234C0.838867 237.314 3.52516 240 6.83887 240H309.839C313.153 240 315.839 237.314 315.839 234Z" fill="#E2E8EE"/>
<path fill-rule="evenodd" clip-rule="evenodd" d="M139.665 224.46L161.604 204.238C176.956 197.91 190.55 177.29 196.706 165.207H145.747C145.998 149.036 143.628 132.466 138.886 115.166C144.17 105.282 147.567 63.2516 128.623 64.2363C127.422 71.2627 126.218 78.289 125.018 85.3154C124.262 98.306 122.907 110.509 120.302 121.096C118.13 127.012 115.958 132.931 113.786 138.847C111.499 145.017 110.146 152.908 112.675 167.969C113.391 172.369 113.265 176.701 111.763 180.917L43.0391 224.457H139.665V224.46Z" fill="#E2A982"/>
<path fill-rule="evenodd" clip-rule="evenodd" d="M192.564 172.641C194.078 170.221 195.452 167.739 196.706 165.207H145.747L192.564 172.641Z" fill="#C28B67"/>
<path fill-rule="evenodd" clip-rule="evenodd" d="M179.007 156.497H184.611C185.401 156.497 186.047 157.142 186.047 157.932V160.729C186.047 161.519 185.401 162.165 184.611 162.165H179.007C178.217 162.165 177.571 161.519 177.571 160.729V157.932C177.569 157.142 178.214 156.497 179.007 156.497Z" fill="white"/>
<path fill-rule="evenodd" clip-rule="evenodd" d="M143.89 0.446495H219.733C223.472 0.446495 226.53 3.50469 226.53 7.24335V158.41C226.53 162.149 223.472 165.207 219.733 165.207H143.89C140.151 165.207 137.093 162.149 137.093 158.41V7.24335C137.093 3.50469 140.151 0.446495 143.89 0.446495Z" fill="#343434"/>
<path fill-rule="evenodd" clip-rule="evenodd" d="M193.378 6.29605C194.555 6.29605 195.508 7.24875 195.508 8.42559C195.508 9.60242 194.555 10.5551 193.378 10.5551C192.201 10.5551 191.249 9.60242 191.249 8.42559C191.249 7.24875 192.201 6.29605 193.378 6.29605ZM169.465 6.29605H186.264C187.003 6.29605 187.609 6.90183 187.609 7.64102V9.20747C187.609 9.94667 187.003 10.5524 186.264 10.5524H169.465C168.723 10.5524 168.12 9.94667 168.12 9.20747V7.64102C168.12 6.90183 168.723 6.29605 169.465 6.29605Z" fill="white"/>
<path d="M222.333 16.4018H141.99V152.923H222.333V16.4018Z" fill="white"/>
<path fill-rule="evenodd" clip-rule="evenodd" d="M226.53 57.6078L231.875 52.5776C240.74 44.2356 247.428 51.4088 239.596 60.7274L226.53 76.2718V57.6078Z" fill="#E2A982"/>
<path fill-rule="evenodd" clip-rule="evenodd" d="M226.53 76.178L230.963 72.2339C240.057 64.1428 246.515 71.065 238.683 80.3837L226.53 94.842V76.178Z" fill="#E2A982"/>
<path fill-rule="evenodd" clip-rule="evenodd" d="M226.53 94.2014L230.68 90.5108C239.193 82.9374 245.234 89.4167 237.906 98.1376L226.533 111.67V94.2014H226.53Z" fill="#E2A982"/>
<path fill-rule="evenodd" clip-rule="evenodd" d="M226.529 125.878C230.441 122.272 245.495 105.647 230.897 106.739C227.938 107.2 224.981 107.662 222.022 108.126C218.707 110.587 221.678 115.19 226.529 116.239V125.878Z" fill="#E2A982"/>
<path fill-rule="evenodd" clip-rule="evenodd" d="M232.804 115.683C230.813 116.323 228.727 116.524 226.53 116.238C226.53 116.676 226.53 117.116 226.53 117.554C228.761 117.602 230.851 116.959 232.804 115.683Z" fill="#C28B67"/>
<path fill-rule="evenodd" clip-rule="evenodd" d="M182.974 152.923L182.197 142.7H204.346C207.447 145.873 209.369 149.291 210.54 152.923H182.974Z" fill="#343434"/>
<path fill-rule="evenodd" clip-rule="evenodd" d="M185.223 152.923L185.999 142.7H163.85C160.749 145.873 158.828 149.291 157.656 152.923H185.223Z" fill="#343434"/>
<path fill-rule="evenodd" clip-rule="evenodd" d="M189.755 123.481C188.215 121.942 186.091 120.992 183.742 120.992C181.394 120.992 179.267 121.944 177.73 123.481C176.19 125.021 175.24 127.145 175.24 129.494C175.24 131.842 176.193 133.969 177.73 135.506C179.27 137.046 181.394 137.996 183.742 137.996C186.091 137.996 188.217 137.043 189.755 135.506C191.294 133.966 192.244 131.842 192.244 129.494C192.244 127.148 191.294 125.021 189.755 123.481ZM183.742 119.753C186.432 119.753 188.869 120.845 190.63 122.606C192.394 124.37 193.483 126.804 193.483 129.494C193.483 132.184 192.391 134.617 190.63 136.381C188.866 138.145 186.432 139.234 183.742 139.234C181.052 139.234 178.616 138.142 176.855 136.381C175.091 134.617 174.002 132.184 174.002 129.494C174.002 126.804 175.093 124.367 176.855 122.606C178.616 120.845 181.052 119.753 183.742 119.753ZM183.742 122.15C187.798 122.15 191.086 125.437 191.086 129.494C191.086 133.55 187.798 136.838 183.742 136.838C179.686 136.838 176.398 133.55 176.398 129.494C176.396 125.44 179.686 122.15 183.742 122.15Z" fill="#80CAFF"/>
<path fill-rule="evenodd" clip-rule="evenodd" d="M196.667 224.46C195.111 219.376 194.332 214.912 194.77 211.733C198.938 206.084 201.532 199.986 201.58 193.16C201.502 192.061 201.422 190.964 201.345 189.865C194.858 171.107 188.37 152.352 181.883 133.595C180.447 125.274 187.527 121.584 192.085 127.631C199.907 142.044 207.728 156.459 215.55 170.872C234.35 170.138 236.698 181.573 247.882 181.781C252.016 182.126 255.36 184.066 257.929 186.961C259.226 188.466 260.79 189.093 262.402 189.55C267.422 190.505 270.957 193.512 271.584 200.536C271.841 208.494 271.977 216.467 271.985 224.46H196.667Z" fill="#F9BC8F"/>
<path fill-rule="evenodd" clip-rule="evenodd" d="M194.767 211.734C192.005 213.911 187.141 213.655 182.137 209.767C175.306 204.427 168.429 199.634 161.418 196.448C151.016 192.392 140.062 186.305 135.184 202.503C147.35 207.688 158.064 215.776 168.477 224.46H203.291L194.767 211.734Z" fill="#F9BC8F"/>
<path d="M211.67 73.2658C209.609 95.9247 193.646 113.948 181.029 113.948C170.213 113.948 151.934 94.4463 151.934 71.9769C151.934 49.5076 162.685 32.5808 181.029 32.5808C199.375 32.5808 211.67 50.7965 211.67 73.2658Z" fill="#F9BC8F"/>
<path d="M209.869 70.4308C209.901 69.7583 211.783 68.4267 212.298 68.1732C216.263 66.2118 215.238 74.3856 215.006 76.1789C214.526 79.8722 213.013 84.1233 209.162 85.4282C209.162 85.4282 209.869 70.4388 209.869 70.4308Z" fill="#F9BC8F"/>
<path d="M154.298 70.4308C154.266 69.7583 152.384 68.4267 151.869 68.1732C147.904 66.2118 148.929 74.3856 149.161 76.1789C149.641 79.8722 151.154 84.1233 155.005 85.4282C155.005 85.4282 154.298 70.4388 154.298 70.4308Z" fill="#F9BC8F"/>
<path d="M209.425 77.5568C209.425 77.5568 210.385 69.5684 212.2 68.2777C212.2 68.2777 213.23 67.3856 214.381 68.2777C214.381 68.2777 216.772 48.9806 207.312 37.3122C207.312 37.3122 201.684 30.21 191.714 29.9569C191.714 29.9569 188.388 22.4091 175.346 23.9328C175.346 23.9328 156.931 26.4083 150.538 44.4854C150.538 44.4854 147.137 56.5359 149.994 68.1132C149.994 68.1132 155.635 67.1286 154.635 77.5669H155.63L157.186 60.9173C157.186 60.9173 157.186 52.106 160.908 49.1956C160.908 49.1956 166.907 43.1591 177.387 42.3998C177.387 42.3998 181.224 49.502 194.01 55.3387C194.01 55.3387 191.454 51.7851 192.219 50.2664C192.219 50.2664 195.031 56.1031 200.914 60.4161C200.914 60.4161 198.868 56.8625 199.378 55.5969C199.378 55.5969 205.817 57.3434 207.817 66.7591L208.328 77.5719H209.425V77.5568Z" fill="#432918"/>
<path d="M181.282 16.4025V85.5754" stroke="#80CAFF" stroke-width="1.4552" stroke-miterlimit="10"/>
</svg>
