<svg width="76" height="75" viewBox="0 0 76 75" fill="none" xmlns="http://www.w3.org/2000/svg">
<circle cx="38.3365" cy="37.5013" r="16.7838" fill="#CB061D"/>
<path d="M57.1258 25.6624C58.2516 27.4437 59.1148 29.3778 59.689 31.4053L59.6897 31.408C62.3789 40.8325 58.5699 50.9056 50.3173 56.1935C42.0647 61.4815 31.3212 60.7331 23.882 54.3521C16.4428 47.9712 14.0679 37.4675 18.0385 28.5068C22.0091 19.5461 31.3857 14.2485 41.1104 15.4717C41.8768 15.5681 42.5762 15.025 42.6727 14.2586C42.7691 13.4922 42.2259 12.7927 41.4595 12.6963C30.5097 11.319 19.9518 17.2839 15.481 27.3735C11.0102 37.4632 13.6842 49.2905 22.0608 56.4754C30.4373 63.6603 42.5343 64.5029 51.8265 58.5488C61.1183 52.5949 65.4073 41.2535 62.38 30.6418C61.7327 28.3563 60.7595 26.176 59.4904 24.168C59.0777 23.515 58.2138 23.3202 57.5609 23.7329C56.9079 24.1456 56.7131 25.0095 57.1258 25.6624Z" fill="#00365C"/>
<path d="M51.9139 20.4502C52.5137 20.937 53.3945 20.8455 53.8813 20.2458C54.3682 19.6461 54.2767 18.7652 53.6769 18.2784C53.4205 18.0703 53.1551 17.8799 52.9275 17.7167L52.9135 17.7067C52.2857 17.2566 51.4119 17.4006 50.9618 18.0283C50.5117 18.656 50.6557 19.5298 51.2834 19.98C51.526 20.1539 51.7282 20.2994 51.9139 20.4502Z" fill="#00365C"/>
<path fill-rule="evenodd" clip-rule="evenodd" d="M31.3206 30.4855C32.1959 29.6101 33.6151 29.6101 34.4904 30.4855L38.3366 34.3317L42.1829 30.4855C43.0582 29.6101 44.4774 29.6101 45.3527 30.4855C46.2281 31.3608 46.2281 32.78 45.3527 33.6553L41.5065 37.5016L45.3526 41.3478C46.228 42.2232 46.228 43.6424 45.3526 44.5177C44.4773 45.393 43.0581 45.393 42.1828 44.5177L38.3366 40.6715L34.4904 44.5177C33.6151 45.393 32.1959 45.393 31.3206 44.5177C30.4452 43.6423 30.4452 42.2231 31.3206 41.3478L35.1668 37.5016L31.3206 33.6553C30.4452 32.78 30.4452 31.3608 31.3206 30.4855Z" fill="white"/>
</svg>
