<svg width="28" height="28" viewBox="0 0 28 28" fill="none" xmlns="http://www.w3.org/2000/svg">
<path fill-rule="evenodd" clip-rule="evenodd" d="M21.4481 7.23125C21.7334 6.93095 21.7212 6.45623 21.4209 6.17094C21.1206 5.88565 20.6459 5.89783 20.3606 6.19813L14.2598 12.62L8.15899 6.19813C7.8737 5.89783 7.39898 5.88565 7.09867 6.17094C6.79837 6.45623 6.7862 6.93095 7.07149 7.23125L13.2253 13.709L7.07149 20.1867C6.7862 20.487 6.79837 20.9617 7.09867 21.247C7.39898 21.5323 7.8737 21.5201 8.15899 21.2198L14.2598 14.7979L20.3606 21.2198C20.6459 21.5201 21.1206 21.5323 21.4209 21.247C21.7212 20.9617 21.7334 20.487 21.4481 20.1867L15.2943 13.709L21.4481 7.23125Z" fill="#757575"/>
</svg>
