<svg width="76" height="75" viewBox="0 0 76 75" fill="none" xmlns="http://www.w3.org/2000/svg">
<path d="M13.3389 25.4444V16.0229C13.3389 14.0837 14.9226 12.5 16.8618 12.5H26.2833C27.1398 12.5 27.8508 13.1949 27.8508 14.0675C27.8508 14.924 27.1559 15.6351 26.2833 15.6351H16.8618C16.6517 15.6351 16.474 15.8129 16.474 16.0229V25.4444C16.474 26.3009 15.7791 27.012 14.9064 27.012C14.0338 27.012 13.3389 26.3009 13.3389 25.4444ZM26.2833 59.3649H16.8618C16.6517 59.3649 16.474 59.1871 16.474 58.977V49.5556C16.474 48.6991 15.7791 47.988 14.9064 47.988C14.0338 47.988 13.3389 48.6829 13.3389 49.5556V58.977C13.3389 60.9163 14.9226 62.5 16.8618 62.5H26.2833C27.1398 62.5 27.8508 61.8051 27.8508 60.9324C27.8347 60.0759 27.1398 59.3649 26.2833 59.3649ZM61.7713 47.988C60.9148 47.988 60.2038 48.6829 60.2038 49.5556V58.977C60.2038 59.1871 60.026 59.3649 59.8159 59.3649H50.3945C49.538 59.3649 48.8269 60.0598 48.8269 60.9324C48.8269 61.7889 49.5218 62.5 50.3945 62.5H59.8159C61.7551 62.5 63.3389 60.9163 63.3389 58.977V49.5556C63.3389 48.6829 62.6278 47.988 61.7713 47.988ZM59.8159 12.5H50.3945C49.538 12.5 48.8269 13.1949 48.8269 14.0675C48.8269 14.924 49.5218 15.6351 50.3945 15.6351H59.8159C60.026 15.6351 60.2038 15.8129 60.2038 16.0229V25.4444C60.2038 26.3009 60.8987 27.012 61.7713 27.012C62.644 27.012 63.3389 26.3171 63.3389 25.4444V16.0229C63.3389 14.0837 61.7551 12.5 59.8159 12.5Z" fill="#00365C"/>
<path d="M39.9385 59.5899V58.6526C39.9385 57.7315 39.1951 56.9881 38.2739 56.9881C37.3528 56.9881 36.6094 57.7315 36.6094 58.6526V59.5899C25.6851 58.7819 16.9262 50.023 16.1182 39.0986H17.0555C17.9766 39.0986 18.72 38.3552 18.72 37.4341C18.72 36.513 17.9766 35.7696 17.0555 35.7696H16.1343C16.9423 24.8452 25.7012 16.0863 36.6256 15.2783V16.2156C36.6256 17.1368 37.369 17.8801 38.2901 17.8801C39.2112 17.8801 39.9546 17.1368 39.9546 16.2156V15.2783C50.879 16.0863 59.6379 24.8452 60.4459 35.7696H59.5086C58.5875 35.7696 57.8441 36.513 57.8441 37.4341C57.8441 38.3552 58.5875 39.0986 59.5086 39.0986H60.4459C59.6217 50.023 50.879 58.7657 39.9385 59.5899Z" fill="#FFE982"/>
<path d="M43.897 36.0613C44.9959 34.7846 45.6585 33.1201 45.6585 31.3102C45.6585 27.2701 42.3779 23.9895 38.3379 23.9895C34.2978 23.9895 31.0172 27.2701 31.0172 31.3102C31.0172 33.1201 31.6798 34.7846 32.7787 36.0613C29.1911 38.0329 26.7671 41.8467 26.7671 46.21V47.2766C26.7671 48.3755 27.6559 49.2643 28.7548 49.2643H47.9209C49.0198 49.2643 49.9086 48.3755 49.9086 47.2766V46.21C49.9086 41.8305 47.4684 38.0167 43.897 36.0613ZM35.0088 31.3102C35.0088 29.4841 36.4956 27.9811 38.3379 27.9811C40.164 27.9811 41.6669 29.4679 41.6669 31.3102C41.6669 33.1363 40.1801 34.6392 38.3379 34.6392C36.4956 34.623 35.0088 33.1363 35.0088 31.3102ZM30.8072 45.2727C31.2597 41.5235 34.4594 38.6146 38.3379 38.6146C42.2163 38.6146 45.3999 41.5235 45.8686 45.2727H30.8072Z" fill="#F278AB"/>
<path d="M35.0098 31.3107C35.0098 29.4845 36.4965 27.9816 38.3388 27.9816C40.1649 27.9816 41.6678 29.4684 41.6678 31.3107C41.6678 33.1368 40.1811 34.6397 38.3388 34.6397C36.4965 34.6235 35.0098 33.1368 35.0098 31.3107Z" fill="#F6F8FC"/>
<path d="M30.8071 45.2732C31.2596 41.524 34.4594 38.6152 38.3378 38.6152C42.2163 38.6152 45.3999 41.524 45.8685 45.2732H30.8071Z" fill="#F6F8FC"/>
<path fill-rule="evenodd" clip-rule="evenodd" d="M22.9769 22.138C23.7905 21.3244 25.1096 21.3244 25.9232 22.138L53.7009 49.9157C54.5145 50.7293 54.5145 52.0484 53.7009 52.862C52.8874 53.6756 51.5683 53.6756 50.7547 52.862L22.9769 25.0842C22.1633 24.2707 22.1633 22.9516 22.9769 22.138Z" fill="#123659"/>
</svg>
