<svg width="28" height="28" viewBox="0 0 28 28" fill="none" xmlns="http://www.w3.org/2000/svg">
<path d="M17.96 24.1357C18.2178 24.3936 18.5459 24.5342 18.9326 24.5342C19.7061 24.5342 20.3271 23.9248 20.3271 23.1514C20.3271 22.7646 20.1631 22.4131 19.8936 22.1436L11.6904 14.1279L19.8936 6.13574C20.1631 5.86621 20.3271 5.50293 20.3271 5.12793C20.3271 4.35449 19.7061 3.74512 18.9326 3.74512C18.5459 3.74512 18.2178 3.88574 17.96 4.14355L8.84277 13.0498C8.51465 13.3545 8.3623 13.7295 8.35059 14.1396C8.35059 14.5498 8.51465 14.9014 8.84277 15.2178L17.96 24.1357Z" fill="#0067B1"/>
</svg>
